<svg width="20" height="21" viewBox="0 0 20 21" fill="none" xmlns="http://www.w3.org/2000/svg">
<g id="heart">
<path id="Vector" d="M9.99946 18L9.99949 17.9766C9.75329 17.9763 9.51289 17.9019 9.30955 17.7631L9.3095 17.763C6.24129 15.6802 4.9137 14.2528 4.18203 13.3613C2.62243 11.4605 1.87686 9.51066 1.89789 7.39984C1.92238 4.986 3.85893 3.02344 6.21352 3.02344C7.92579 3.02344 9.11246 3.98782 9.80473 4.79301L9.80481 4.7931C9.82901 4.82097 9.85891 4.84331 9.89249 4.85862C9.92607 4.87394 9.96255 4.88186 9.99946 4.88186C10.0364 4.88186 10.0728 4.87394 10.1064 4.85862C10.14 4.84331 10.1699 4.82097 10.1941 4.7931L10.1942 4.79301C10.8865 3.98705 12.0731 3.02344 13.7854 3.02344C16.14 3.02344 18.0765 4.98599 18.101 7.40024C18.1221 9.51144 17.3757 11.4613 15.8169 13.3617C15.0852 14.2532 13.7576 15.6806 10.6894 17.7634L10.6894 17.7634C10.486 17.9021 10.2456 17.9764 9.99944 17.9766L9.99946 18ZM9.99946 18C10.2503 17.9998 10.4953 17.9241 10.7026 17.7828L9.8225 4.77773C9.12797 3.96992 7.9354 3 6.21352 3C3.84555 3 1.89907 4.97344 1.87446 7.39961C1.85336 9.5168 2.60141 11.4719 4.16391 13.3762C4.89711 14.2695 6.22641 15.6984 9.29633 17.7824C9.50356 17.9239 9.74856 17.9997 9.99946 18Z" fill="#2D2AA5" stroke="#4C4850" stroke-width="0.046875"/>
</g>
</svg>
