<svg width="16" height="22" viewBox="0 0 16 22" fill="none" xmlns="http://www.w3.org/2000/svg">
<path d="M8 0.5C3.86469 0.5 0.5 3.71797 0.5 7.67188C0.5 9.55484 1.35828 12.0589 3.05094 15.1147C4.41031 17.5681 5.98297 19.7867 6.80094 20.8906C6.93916 21.0792 7.11987 21.2326 7.32844 21.3384C7.53701 21.4441 7.76757 21.4992 8.00141 21.4992C8.23525 21.4992 8.4658 21.4441 8.67437 21.3384C8.88294 21.2326 9.06366 21.0792 9.20188 20.8906C10.0184 19.7867 11.5925 17.5681 12.9519 15.1147C14.6417 12.0598 15.5 9.55578 15.5 7.67188C15.5 3.71797 12.1353 0.5 8 0.5ZM8 11C7.40666 11 6.82664 10.8241 6.33329 10.4944C5.83994 10.1648 5.45542 9.69623 5.22836 9.14805C5.0013 8.59987 4.94189 7.99667 5.05764 7.41473C5.1734 6.83279 5.45912 6.29824 5.87868 5.87868C6.29824 5.45912 6.83279 5.1734 7.41473 5.05764C7.99667 4.94189 8.59987 5.0013 9.14805 5.22836C9.69623 5.45542 10.1648 5.83994 10.4944 6.33329C10.8241 6.82664 11 7.40666 11 8C10.9991 8.79538 10.6828 9.55794 10.1204 10.1204C9.55794 10.6828 8.79538 10.9991 8 11Z" fill="black"/>
</svg>
